<svg width="325" height="90.391" viewBox="0 0 288 80.1" class="css-1j8o68f"><rect xmlns="http://www.w3.org/2000/svg" width="75" height="89" rx="10" ry="10" transform="scale(.9)" fill="#fff"/><path d="M50.807 47.79c.402 2.319.166 4.728-.615 6.919a13.18 13.18 0 01-3.875 5.64c-1.746 1.503-3.855 2.596-6.182 3.215a17.422 17.422 0 01-7.46.314c-2.592-.432-5.211-1.498-7.51-2.937-2.274-1.458-4.351-3.184-5.706-5.06-.68-.938-1.207-1.926-1.514-2.998a6.658 6.658 0 01-.11-3.359c.154-.724.532-1.404.996-1.852.468-.458 1.002-.715 1.494-.775 1-.123 1.64.475 2 1.137.372.677.602 1.455 1.002 1.931.386.511.854.574.928.71a2.679 2.679 0 00.439 1.602c.304.482.718.88 1.154 1.22.884.669 1.797 1.212 2.707 1.628 1.804.844 3.682 1.144 5.255.665 1.553-.444 2.796-1.623 2.967-3.098a3.462 3.462 0 00-.383-2.086c-.33-.637-.932-1.115-1.59-1.37-.816-.316-1.674-.323-2.412-.292l-1.047.063-.239.014-.857-.123-.448-.067-.538-.113c-.361-.08-.713-.151-1.083-.245-1.51-.41-3.16-1.018-4.801-2.04-1.712-1.066-3.21-2.528-4.325-4.116-2.233-3.209-3.245-6.928-3.024-10.8a16.472 16.472 0 011.447-5.81 17.54 17.54 0 013.294-4.849c2.662-2.766 5.998-4.612 9.745-5.438.471-.097.949-.176 1.427-.253.486-.056.974-.106 1.465-.141.495-.017.998-.031 1.492-.024.485.021.975.041 1.456.088 1.928.19 3.787.665 5.516 1.359 3.461 1.395 6.439 3.618 8.786 6.513.737.842.197 2.219-1.144 3.537-1.329 1.333-3.415 2.623-5.584 3.76s-4.407 2.16-6.04 2.958c-1.638.781-2.668 1.372-2.665 1.227-.138-.44-.495-.924-.834-1.228a4.221 4.221 0 00-.46-.367c-.033-.023-.064-.035-.097-.066a.226.226 0 01-.068-.056.342.342 0 01-.093-.05c-.037-.003-.075-.02-.118-.037-.35-.096-.893.008-1.22.14l-.388.15c-.084.007-.169.009-.262.154-.192.265-.217.827-.185 1.116.02.155-.007.226.008.32.09.143.363.365.83.6l.422.17.215.089.317.091c.228.063.384.119.671.189l1.306.26c1.732.34 3.46.661 5.01 1.166 3.17.954 5.557 2.473 7.515 4.512.362.444.746.862 1.048 1.363l.482.72.41.77a12.357 12.357 0 011.074 3.34z" fill="#f38181"/><path d="M120.794 40.367c0 .061-.001.123-.004.183-.002.036 0 .072-.002.11l-.007.07-.003.043c-.647 8.514-7.812 15.167-16.364 15.167C95.364 55.94 88 48.577 88 39.526a3.446 3.446 0 016.893 0c0 5.25 4.27 9.521 9.52 9.521 4.487 0 8.305-3.158 9.274-7.413l-11.71-11.712a3.446 3.446 0 114.873-4.873l12.936 12.936c.026.026.048.054.073.08.043.046.085.09.124.138.038.044.072.089.106.134a3.578 3.578 0 01.195.283 3.695 3.695 0 01.161.294 2.866 2.866 0 01.13.302 3.502 3.502 0 01.142.486 3.796 3.796 0 01.076.664zm-32.76-12.793c-.002-.061.001-.123.004-.183.001-.037 0-.073.002-.11l.006-.07.004-.043C88.697 18.653 95.862 12 104.414 12c9.05 0 16.414 7.363 16.414 16.414a3.446 3.446 0 01-6.893 0c0-5.25-4.27-9.521-9.52-9.521-4.487 0-8.305 3.159-9.275 7.414l11.712 11.71a3.446 3.446 0 11-4.874 4.875L89.042 29.956c-.027-.027-.049-.055-.074-.081-.042-.046-.084-.09-.124-.138-.037-.044-.07-.089-.105-.133a3.578 3.578 0 01-.195-.284 3.695 3.695 0 01-.162-.294 3.573 3.573 0 01-.185-.46 3.153 3.153 0 01-.115-.48 3.432 3.432 0 01-.048-.511zm51.521-3.856c8.885 0 16.113 7.228 16.113 16.113v12.665a3.446 3.446 0 01-6.893 0V39.831c0-5.084-4.135-9.22-9.219-9.22s-9.219 4.136-9.219 9.22v12.665a3.446 3.446 0 01-6.892 0v-37.05a3.446 3.446 0 016.892 0v11.182a16.018 16.018 0 019.22-2.91zm34.857-.086c8.909 0 16.155 7.246 16.155 16.155s-7.246 16.155-16.155 16.155-16.155-7.247-16.155-16.155 7.247-16.155 16.155-16.155zm0 25.417c5.107 0 9.263-4.155 9.263-9.262s-4.155-9.263-9.263-9.263-9.262 4.155-9.262 9.263 4.155 9.262 9.262 9.262zm34.898-25.417c8.885 0 16.111 7.228 16.111 16.112s-7.228 16.113-16.112 16.113c-3.427 0-6.606-1.08-9.22-2.91v11.181a3.446 3.446 0 01-6.892 0v-37.05a3.444 3.444 0 016.851-.507 16.019 16.019 0 019.261-2.938zm0 25.33c5.084 0 9.22-4.135 9.22-9.219s-4.137-9.219-9.22-9.219-9.219 4.136-9.219 9.22 4.136 9.218 9.22 9.218zm34.857-25.33c8.908 0 16.155 7.246 16.155 16.155s-7.247 16.155-16.155 16.155-16.155-7.247-16.155-16.155 7.247-16.155 16.155-16.155zm0 25.417c5.107 0 9.263-4.155 9.263-9.262s-4.155-9.263-9.263-9.263-9.262 4.155-9.262 9.263 4.155 9.262 9.262 9.262zm31.31-25.417c6.905 0 12.523 5.618 12.523 12.524v16.34a3.446 3.446 0 01-6.893 0v-16.34c0-3.105-2.525-5.631-5.63-5.631s-5.632 2.526-5.632 5.63v16.341a3.446 3.446 0 01-6.892 0V27.079a3.446 3.446 0 013.446-3.447c1.233 0 2.312.65 2.921 1.624a12.442 12.442 0 016.157-1.624z" fill="#fff"/></svg>